<?xml version="1.0" encoding="UTF-8"?>
<!DOCTYPE svg PUBLIC "-//W3C//DTD SVG 1.1//EN" "http://www.w3.org/Graphics/SVG/1.1/DTD/svg11.dtd">
<!-- Creator: CorelDRAW 2021 (64-Bit) -->
<svg xmlns="http://www.w3.org/2000/svg" xml:space="preserve" width="0.333331in" height="0.333331in" version="1.1" style="shape-rendering:geometricPrecision; text-rendering:geometricPrecision; image-rendering:optimizeQuality; fill-rule:evenodd; clip-rule:evenodd"
viewBox="0 0 333.33 333.33"
 xmlns:xlink="http://www.w3.org/1999/xlink"
 xmlns:xodm="http://www.corel.com/coreldraw/odm/2003">
 <defs>
  <style type="text/css">
   <![CDATA[
    .fil1 {fill:none}
    .fil0 {fill:#EEEDE9}
   ]]>
  </style>
   <clipPath id="id0">
    <path d="M-0 -0l333.33 0 0 333.33 -333.33 0 0 -333.33z"/>
   </clipPath>
 </defs>
 <g id="Layer_x0020_1">
  <metadata id="CorelCorpID_0Corel-Layer"/>
  <g>
  </g>
  <g style="clip-path:url(#id0)">
   <g>
    <g id="_2726348423200">
     <path class="fil0" d="M48.79 238.06l0 -142.78c0,-25.2 21.29,-46.48 46.48,-46.48l142.78 0c25.2,0 46.48,21.29 46.48,46.48l0 142.78c0,25.2 -21.29,46.48 -46.48,46.48l-142.78 0c-25.2,0 -46.48,-21.29 -46.48,-46.48zm42.81 -213.06l150.16 0c8.3,0.11 19.39,3.5 26.36,7.01 3.92,1.98 7.15,3.59 10.49,6.11 5.53,4.19 6.65,5.23 11.04,9.99l5.8 6.93c6.63,8.81 12.77,25.3 12.88,36.63l0 150.06c-0.06,4.89 -1.39,10.15 -2.43,14.37 -1.7,6.91 -6.57,17.08 -10.69,22.52 -4.19,5.53 -5.23,6.65 -9.99,11.04 -8.39,7.73 -18.26,13.56 -29.57,16.36 -4,0.99 -9.21,2.26 -13.93,2.32l-150.02 0c-13.14,-0.11 -32.4,-8.06 -41.67,-16.73 -0.87,-0.82 -1.31,-1.43 -2.21,-2.21 -12.85,-11.22 -22.72,-31.41 -22.82,-47.75l0 -150.04c0.06,-4.89 1.39,-10.15 2.43,-14.37 2.06,-8.36 8.62,-21.13 14.3,-27.2l6.37 -6.35c0.89,-0.81 1.31,-1.42 2.22,-2.21 6.65,-5.94 18.58,-11.97 27.36,-14.15 4,-0.99 9.21,-2.26 13.93,-2.32z"/>
     <path class="fil0" d="M119.63 167.22c0,-26.78 20.81,-47.59 47.59,-47.59 25.3,0 46.49,20.91 46.49,47.59 0,25.3 -20.91,46.49 -47.59,46.49 -25.2,0 -46.49,-21.29 -46.49,-46.49zm-23.8 -3.87c0,15.26 1.02,19.65 6.72,33.68 2.54,6.26 9.02,15 13.89,19.87l9.06 7.54c3.36,2.33 7.1,4.83 10.82,6.34 14.53,5.9 17.29,6.72 33.68,6.72 16.7,0 35.19,-9.12 46.92,-20.6 8.51,-8.32 15.31,-20.56 18.27,-32.09 5.47,-21.32 1.63,-41.11 -10.5,-58.99 -4.54,-6.7 -10.42,-12.11 -16.81,-16.94 -2.88,-2.18 -7.57,-5 -10.83,-6.33 -14.02,-5.69 -18.42,-6.72 -33.68,-6.72 -16.68,0 -35.25,8.94 -46.91,20.6l-7.56 9.04c-6.96,9.19 -13.04,25.43 -13.04,37.87z"/>
     <path class="fil0" d="M261.3 89.74c0,-12.54 -14.39,-23.35 -28.21,-14.37 -2.55,1.66 -4.49,4.32 -5.93,7.35 -2.16,4.51 -1.99,11.1 0.54,15.72 0.65,1.19 2.22,3.16 3.08,4.11 0.72,0.8 2.69,2.24 3.76,2.88 11.14,6.53 26.76,-1.3 26.76,-15.69z"/>
    </g>
   </g>
  </g>
  <polygon class="fil1" points="-0,-0 333.33,-0 333.33,333.33 -0,333.33 "/>
 </g>
</svg>
