<?xml version="1.0" encoding="UTF-8"?>
<!DOCTYPE svg PUBLIC "-//W3C//DTD SVG 1.1//EN" "http://www.w3.org/Graphics/SVG/1.1/DTD/svg11.dtd">
<!-- Creator: CorelDRAW 2021 (64-Bit) -->
<svg xmlns="http://www.w3.org/2000/svg" xml:space="preserve" width="0.333331in" height="0.333331in" version="1.1" style="shape-rendering:geometricPrecision; text-rendering:geometricPrecision; image-rendering:optimizeQuality; fill-rule:evenodd; clip-rule:evenodd"
viewBox="0 0 333.33 333.33"
 xmlns:xlink="http://www.w3.org/1999/xlink"
 xmlns:xodm="http://www.corel.com/coreldraw/odm/2003">
 <defs>
  <style type="text/css">
   <![CDATA[
    .fil1 {fill:none}
    .fil0 {fill:#EEEDE9}
   ]]>
  </style>
   <clipPath id="id0">
    <path d="M-0 -0l333.33 0 0 333.33 -333.33 0 0 -333.33z"/>
   </clipPath>
 </defs>
 <g id="Layer_x0020_1">
  <metadata id="CorelCorpID_0Corel-Layer"/>
  <g>
  </g>
  <g style="clip-path:url(#id0)">
   <g>
    <path class="fil0" d="M53.85 140.88c0,4.9 1.33,9.43 4.98,12.75 5.59,5.1 14.65,5.98 21.13,1.54 2.48,-1.7 21.04,-21.44 25.87,-25.7 10.87,-9.58 21.4,-20.8 31.69,-31.17 1.85,-1.86 3.84,-4.54 7.37,-3.91 7.01,1.25 5.13,9.94 5.13,18.01l0 160.63c0,12.44 -1.71,21.01 6.59,27.79 2.32,1.89 5.11,3.03 8.03,3.37l3.81 0c5.1,-0.6 10.1,-3.61 13.17,-9.22 2.66,-4.87 1.7,-14.16 1.7,-21.4l0 -160.63c0,-3.65 -0.16,-7.68 -0.01,-11.29 0.16,-3.77 1.42,-6.32 4.7,-7.16 4.89,-1.24 9.19,4.66 13.44,8.91 3.98,3.98 7.55,7.59 11.56,11.55 2.11,2.09 3.23,3.79 5.37,5.91l29.01 29.01c6.1,6.1 12.64,10.68 22.23,6.92 1.6,-0.63 3.73,-2.11 4.89,-3.17 3.52,-3.21 4.98,-7.59 4.98,-12.74 0,-8.26 -6.29,-12.46 -10.61,-16.79l-90.25 -90.26c-3.44,-3.49 -5.85,-4.47 -9.11,-4.7l-7.06 0c-0.2,0 -0.41,0 -0.61,0 -4.78,0 -24.55,21.59 -28.88,25.92l-54.53 55.07c-4.7,4.7 -9,9 -13.7,13.7 -4.39,4.38 -10.88,8.7 -10.88,17.06z"/>
   </g>
  </g>
  <polygon class="fil1" points="-0,-0 333.33,-0 333.33,333.33 -0,333.33 "/>
 </g>
</svg>
