<?xml version="1.0" encoding="UTF-8"?>
<!DOCTYPE svg PUBLIC "-//W3C//DTD SVG 1.1//EN" "http://www.w3.org/Graphics/SVG/1.1/DTD/svg11.dtd">
<!-- Creator: CorelDRAW 2021 (64-Bit) -->
<svg xmlns="http://www.w3.org/2000/svg" xml:space="preserve" width="0.333331in" height="0.333331in" version="1.1" style="shape-rendering:geometricPrecision; text-rendering:geometricPrecision; image-rendering:optimizeQuality; fill-rule:evenodd; clip-rule:evenodd"
viewBox="0 0 333.33 333.33"
 xmlns:xlink="http://www.w3.org/1999/xlink"
 xmlns:xodm="http://www.corel.com/coreldraw/odm/2003">
 <defs>
  <style type="text/css">
   <![CDATA[
    .fil1 {fill:none}
    .fil0 {fill:#EEEDE9}
   ]]>
  </style>
   <clipPath id="id0">
    <path d="M-0 -0l333.33 0 0 333.33 -333.33 0 0 -333.33z"/>
   </clipPath>
 </defs>
 <g id="Layer_x0020_1">
  <metadata id="CorelCorpID_0Corel-Layer"/>
  <g>
  </g>
  <g style="clip-path:url(#id0)">
   <g>
    <path class="fil0" d="M40.12 146.73zm0 0zm0 0c2.67,0 4.11,0.49 6.78,0.94 22.09,3.7 20.63,-12.68 15.45,-17.38 -7.47,-6.78 -15.89,-9.7 -21.99,-27.52 -5.04,-14.7 -2.4,-18.2 -1.52,-28.71l29.06 23.68c2.6,1.78 5.09,3.29 7.87,4.99 19.69,12.13 45.4,21.72 68.07,25.17 11.81,1.8 27.05,5.93 31.82,-3.83 1.78,-3.64 0.34,-7.86 -0.24,-11.67 -4.72,-31.33 20.17,-55.07 46.17,-58.16 9.03,-1.07 15.38,-0.66 22.96,1.9 6.65,2.24 12.11,5.04 16.96,9.4 5.8,5.22 8.08,8.04 16.81,9.56 11.63,2.04 15.31,0.4 24.83,-0.39 -0.57,2.43 -3.78,6.76 -5.32,8.83l-10.3 10.92c-6.38,5.33 -6.93,4.76 -6.89,14.98 0.08,20.15 -1.2,31.76 -6.65,50.58 -4.33,14.92 -9.81,26.59 -17.58,39.66 -4.94,8.31 -17.79,25.38 -25.44,32.44 -10.13,9.34 -20.7,17.44 -32.61,24.63 -19.49,11.75 -40.64,18.02 -64.06,21.48 -3.93,0.57 -23.5,1.96 -27.13,1.46 -3.5,-0.48 -9.52,-0.58 -13.15,-0.99 -5.01,-0.57 -8.27,-0.98 -13.02,-1.77l-23.52 -5.43c1.49,-2.02 2.74,-1.5 8.11,-2.82 7.41,-1.83 18.28,-6.01 24.92,-9.17 2.85,-1.36 4.27,-2.45 7.07,-3.87 4.98,-2.53 17.54,-10.37 19.55,-14.55 2.71,-5.6 -0.09,-12.38 -5.23,-14.36 -3.84,-1.48 -23.3,0.66 -40.12,-15.83 -2.07,-2.04 -3.73,-3.95 -5.29,-6.29 9.37,-2.18 18.81,-0.41 21,-10.56 2.6,-12.02 -12.08,-12.94 -16.43,-14.61 -13.39,-5.14 -29.94,-20.68 -30.94,-32.71zm113.83 -43.73l0 5.14c-11.48,-0.26 -37.68,-8.56 -47.81,-13.29 -22.72,-10.62 -45.79,-25.5 -61.15,-45.61 -2.07,-2.71 -5.52,-5.55 -9.89,-5.26 -12.99,0.88 -18.77,30.89 -18.77,42.29 0,9.13 2.04,18.55 5.14,26.37 0.94,2.39 2.7,5.46 3.22,7.71 -8.52,0.71 -8.36,9.28 -8.36,14.15 0,17.26 11.76,41.89 25.08,50.8 -1.64,2.44 -3.22,3.36 -3.22,7.72 0,8.74 13.12,28.13 20.77,34.54 5.24,4.39 14.46,11.52 21.03,13.05 -3.18,4.35 -28.52,9.87 -33.71,10.66 -8.39,1.29 -19,1.63 -27.99,0.88 -5.81,-0.49 -7.63,-1.39 -11.48,2.73 -7,7.49 -2.11,13.82 5.3,18.25 10.41,6.22 28.68,15.13 41.15,18.66 26.93,7.62 36.13,8.63 64.68,8.63 17.76,0 36.93,-3.96 51.04,-8.13 14.7,-4.34 29.6,-11.2 41.46,-18.36 13.16,-7.94 15.29,-10.41 25.84,-18.53 6.15,-4.74 13.08,-12.31 18.49,-18.17 1.35,-1.46 2.14,-2.63 3.52,-4.2 23.18,-26.52 41.86,-71.55 42.94,-106.26 0.1,-3.2 0.57,-3.25 0.66,-6.41 0.24,-8.06 -1.41,-9.43 2.04,-12.76 12.16,-11.7 21.62,-24.94 25.24,-42.29 0.8,-3.84 1.22,-9.86 -0.07,-12.7 -1.3,-2.84 -5.32,-6.22 -9.22,-6.22 -5.91,0 -10.85,5.82 -21.67,7.91 -4.56,0.88 -14.88,1.78 -19.03,-1.29 -1.5,-1.11 -2.79,-2.34 -4.17,-3.55 -8.88,-7.81 -26.73,-16.57 -43.23,-16.57 -13.57,0 -23.26,1.24 -34.95,6.85 -8.2,3.93 -19.53,11.42 -25.13,18.6 -1.52,1.93 -2.54,2.9 -4.06,4.95 -7.85,10.58 -13.68,25.3 -13.68,39.7z"/>
   </g>
  </g>
  <polygon class="fil1" points="-0,-0 333.33,-0 333.33,333.33 -0,333.33 "/>
 </g>
</svg>
